<?xml version="1.0" standalone="no"?>
<!DOCTYPE svg PUBLIC "-//W3C//DTD SVG 20010904//EN"
 "http://www.w3.org/TR/2001/REC-SVG-20010904/DTD/svg10.dtd">
<svg version="1.0" xmlns="http://www.w3.org/2000/svg"
 width="300.000000pt" height="150.000000pt" viewBox="0 0 300.000000 150.000000"
 preserveAspectRatio="xMidYMid meet">

<g transform="translate(0.000000,150.000000) scale(0.100000,-0.100000)"
fill="#000000" stroke="none">
<path d="M1905 1111 c-117 -61 -229 -146 -351 -266 -106 -105 -154 -171 -154
-214 0 -16 -18 -31 -37 -31 -10 0 8 52 48 142 62 136 43 127 -37 -19 -24 -44
-34 -53 -57 -53 -33 0 -77 -40 -77 -70 0 -27 15 -26 17 1 2 28 31 59 55 59 25
0 23 -9 -14 -47 -18 -18 -27 -33 -22 -33 6 0 21 11 34 25 29 31 40 32 32 3 -5
-19 -2 -21 31 -15 22 3 37 1 40 -6 2 -6 32 -12 73 -13 38 -1 56 0 41 3 -28 4
-28 5 -11 24 9 10 12 19 7 19 -6 0 -16 -7 -23 -15 -14 -17 -38 -19 -59 -6 -18
11 3 51 27 51 15 -1 15 -3 -3 -16 -20 -16 -20 -16 0 -12 11 2 21 12 23 22 3
16 -1 18 -27 14 -17 -2 -31 -2 -31 2 0 35 166 213 292 313 69 56 202 140 244
154 49 17 59 4 45 -53 -14 -57 -144 -362 -177 -414 -11 -19 -33 -59 -48 -87
-22 -44 -31 -53 -58 -57 -18 -3 -55 -9 -83 -14 -43 -8 -39 -9 28 -4 l79 5 -29
-59 c-42 -84 -77 -174 -70 -180 12 -12 27 10 82 123 32 65 64 122 72 126 7 5
11 12 8 16 -2 5 31 87 74 182 169 375 184 439 106 439 -8 0 -48 -18 -90 -39z"/>
<path d="M2284 1110 c-6 -6 -73 -139 -150 -295 l-139 -285 -70 -2 -70 -2 68
-3 c37 -2 67 -6 67 -8 0 -1 -27 -65 -61 -140 -33 -75 -58 -139 -55 -143 8 -8
7 -11 76 146 35 78 67 142 71 142 5 0 9 8 9 18 0 10 61 141 135 292 123 248
150 311 119 280z"/>
<path d="M1155 1001 c-166 -59 -345 -170 -467 -292 -107 -107 -116 -160 -31
-196 35 -14 197 -17 273 -4 26 5 -9 6 -86 3 -141 -5 -196 5 -215 39 -60 112
470 479 675 467 49 -3 51 -4 54 -35 2 -19 -7 -53 -22 -85 -25 -53 -26 -74 -2
-47 15 17 56 112 56 132 0 54 -109 63 -235 18z"/>
<path d="M2355 734 c-31 -65 -60 -113 -76 -125 -37 -26 -41 -24 -33 16 3 19 3
35 0 35 -3 0 -22 -18 -42 -40 -41 -45 -60 -52 -49 -17 3 12 9 33 11 47 l5 25
-14 -25 c-40 -69 -23 -100 33 -60 25 18 30 19 30 6 0 -18 23 -21 51 -6 10 6
19 7 19 2 0 -4 15 -9 34 -10 27 -2 39 3 55 24 30 38 28 74 -4 74 -14 0 -25 2
-25 5 0 3 11 28 25 56 34 66 46 99 37 99 -4 -1 -29 -48 -57 -106z m25 -81 c0
-21 -30 -63 -46 -63 -19 0 -18 44 1 60 8 7 13 16 10 20 -3 5 4 6 15 3 11 -3
20 -12 20 -20z"/>
<path d="M1207 648 c16 -19 -9 -58 -38 -58 -23 0 -24 8 -2 39 11 17 12 22 3
19 -40 -13 -37 -68 3 -68 46 0 77 65 37 78 -12 4 -13 2 -3 -10z"/>
<path d="M1568 583 c7 -3 16 -2 19 1 4 3 -2 6 -13 5 -11 0 -14 -3 -6 -6z"/>
<path d="M1078 543 c7 -3 16 -2 19 1 4 3 -2 6 -13 5 -11 0 -14 -3 -6 -6z"/>
<path d="M1000 530 c-20 -6 -21 -8 -5 -8 11 0 31 4 45 8 20 6 21 8 5 8 -11 0
-31 -4 -45 -8z"/>
<path d="M2153 533 c9 -2 25 -2 35 0 9 3 1 5 -18 5 -19 0 -27 -2 -17 -5z"/>
<path d="M2278 523 c34 -2 90 -2 125 0 34 2 6 3 -63 3 -69 0 -97 -1 -62 -3z"/>
</g>
</svg>
