<?xml version="1.0" standalone="no"?>
<!DOCTYPE svg PUBLIC "-//W3C//DTD SVG 20010904//EN"
 "http://www.w3.org/TR/2001/REC-SVG-20010904/DTD/svg10.dtd">
<svg version="1.0" xmlns="http://www.w3.org/2000/svg"
 width="300.000000pt" height="150.000000pt" viewBox="0 0 300.000000 150.000000"
 preserveAspectRatio="xMidYMid meet">

<g transform="translate(0.000000,150.000000) scale(0.100000,-0.100000)"
fill="#000000" stroke="none">
<path d="M2064 1236 c-210 -66 -660 -461 -699 -614 -7 -28 -21 -52 -35 -61
-23 -16 -23 -15 -17 17 4 18 27 81 53 140 25 59 48 113 51 120 3 6 1 12 -5 12
-6 0 -36 -47 -68 -105 l-57 -105 -39 0 c-49 0 -88 -35 -88 -80 0 -25 4 -30 25
-30 15 0 42 15 67 38 l41 37 -5 -28 c-6 -34 12 -45 46 -29 18 8 27 7 40 -6 22
-22 136 -27 201 -8 l50 14 -75 -5 -75 -6 28 22 c15 13 27 27 27 33 0 7 -10 2
-22 -9 -45 -40 -67 -46 -96 -26 l-27 18 31 3 c18 2 40 12 49 22 16 18 16 20 1
26 -9 3 -30 4 -46 0 -17 -3 -30 -3 -30 0 0 46 241 302 385 410 159 119 293
197 329 192 18 -3 21 -9 20 -55 -3 -106 -286 -707 -338 -717 -11 -3 -55 -10
-96 -16 -41 -6 -79 -15 -83 -19 -4 -4 33 -1 83 7 50 8 93 12 96 9 4 -3 -19
-63 -50 -132 -67 -152 -74 -175 -52 -175 11 0 42 53 95 159 l80 159 116 7 c64
4 118 5 121 3 2 -3 -29 -82 -71 -175 -41 -94 -75 -176 -75 -182 0 -34 24 8 99
174 l83 185 277 2 276 1 -175 9 c-96 5 -217 7 -267 4 -79 -5 -93 -3 -93 10 0
8 77 171 170 361 94 190 170 350 170 355 0 4 -4 8 -10 8 -9 0 -275 -524 -338
-667 l-32 -73 -72 0 c-40 0 -90 -3 -110 -6 -29 -5 -39 -3 -44 9 -3 9 25 82 64
169 177 387 230 528 216 573 -12 38 -33 42 -100 21z m-794 -613 c0 -12 -70
-83 -81 -83 -17 0 -9 44 13 67 20 21 68 32 68 16z m180 -13 c0 -12 -28 -25
-36 -17 -9 9 6 27 22 27 8 0 14 -5 14 -10z"/>
<path d="M1115 1085 c-204 -55 -480 -220 -647 -385 -73 -74 -99 -106 -109
-139 -18 -60 0 -90 66 -113 92 -32 348 -16 520 31 93 25 59 26 -47 1 -46 -11
-139 -24 -208 -31 -181 -15 -273 0 -300 52 -9 17 -6 31 15 75 73 149 417 392
678 478 217 72 272 32 189 -137 -16 -32 -26 -60 -22 -62 22 -14 90 120 90 177
0 52 -27 68 -110 67 -36 0 -87 -6 -115 -14z"/>
<path d="M2342 680 c-8 -13 -8 -20 -2 -20 6 0 13 7 17 15 9 24 -1 27 -15 5z"/>
<path d="M2475 616 c-27 -35 -53 -62 -57 -59 -5 2 -8 22 -8 44 0 24 -4 38 -10
34 -5 -3 -10 -16 -10 -28 0 -24 -44 -57 -74 -57 -20 0 -20 4 -1 40 9 17 11 30
6 30 -15 0 -43 -59 -37 -76 8 -20 49 -17 79 6 25 20 25 20 30 0 6 -24 30 -26
52 -3 24 23 95 118 95 126 0 18 -19 1 -65 -57z"/>
<path d="M1052 607 c-31 -32 -29 -65 4 -73 49 -12 107 38 91 80 -10 25 -69 20
-95 -7z m75 -4 c5 -14 -40 -63 -57 -63 -22 0 -22 32 1 56 24 25 49 28 56 7z"/>
<path d="M2535 605 c-45 -44 -29 -75 37 -75 32 0 98 35 98 51 0 6 -15 -2 -34
-16 -41 -31 -99 -32 -104 -2 -3 13 4 17 30 17 35 0 58 15 58 37 0 23 -59 15
-85 -12z m63 3 c-5 -16 -48 -24 -48 -10 0 11 17 20 38 21 8 1 12 -5 10 -11z"/>
<path d="M2703 453 c9 -2 25 -2 35 0 9 3 1 5 -18 5 -19 0 -27 -2 -17 -5z"/>
</g>
</svg>
