<?xml version="1.0" standalone="no"?>
<!DOCTYPE svg PUBLIC "-//W3C//DTD SVG 20010904//EN"
 "http://www.w3.org/TR/2001/REC-SVG-20010904/DTD/svg10.dtd">
<svg version="1.0" xmlns="http://www.w3.org/2000/svg"
 width="300.000000pt" height="150.000000pt" viewBox="0 0 300.000000 150.000000"
 preserveAspectRatio="xMidYMid meet">

<g transform="translate(0.000000,150.000000) scale(0.100000,-0.100000)"
fill="#000000" stroke="none">
<path d="M1776 1229 c-108 -25 -348 -199 -531 -383 -131 -132 -163 -181 -174
-267 -1 -10 -32 -20 -41 -14 -8 5 21 80 97 254 10 24 11 32 2 29 -7 -2 -37
-49 -68 -104 -47 -82 -60 -98 -78 -96 -28 4 -79 -23 -93 -47 -16 -30 -13 -71
5 -71 25 0 73 29 85 50 13 25 33 27 26 3 -3 -10 -1 -24 4 -32 7 -12 13 -13 35
-3 21 10 29 9 40 -2 31 -30 176 -27 248 5 21 9 20 9 -3 4 -14 -3 -52 -8 -85
-11 l-60 -7 28 22 c15 13 27 27 27 33 0 5 -14 -2 -31 -16 -33 -28 -68 -33 -87
-14 -17 17 -15 27 6 21 26 -6 71 32 55 48 -8 8 -19 9 -42 1 -40 -14 -41 -1 -4
53 47 71 129 160 233 250 162 143 382 285 439 285 18 0 21 -6 21 -38 0 -22 -8
-63 -19 -93 -34 -99 -178 -412 -238 -519 l-59 -105 -78 -12 c-42 -6 -89 -17
-104 -22 -25 -11 -25 -11 8 -6 19 3 64 9 99 12 53 5 63 4 58 -8 -3 -8 -31 -70
-61 -139 -60 -135 -64 -150 -41 -150 9 0 44 58 92 155 43 85 85 157 93 160 23
6 209 10 215 4 3 -3 -16 -53 -41 -110 -78 -177 -104 -242 -99 -247 10 -10 22
13 95 178 40 91 78 171 83 177 7 10 66 14 221 15 l211 3 -207 2 c-147 3 -208
7 -208 15 0 6 77 166 170 356 94 190 168 347 166 350 -13 13 -43 -41 -202
-363 l-174 -352 -61 -7 c-77 -8 -169 -8 -169 0 0 3 40 94 89 202 151 335 201
462 201 513 0 20 -26 49 -43 48 -7 -1 -30 -5 -51 -10z m-791 -599 c4 -6 -13
-30 -36 -53 -40 -39 -44 -40 -47 -20 -4 29 14 62 41 73 30 12 35 12 42 0z
m173 -26 c-9 -9 -21 -13 -27 -9 -16 10 -3 25 22 25 20 0 20 -1 5 -16z"/>
<path d="M900 1093 c-338 -65 -864 -447 -810 -588 6 -17 26 -33 57 -47 43 -19
60 -20 207 -15 163 5 366 38 366 59 0 6 -8 7 -17 3 -75 -29 -219 -48 -365 -49
-144 -1 -159 1 -185 20 -59 44 -32 115 84 225 160 151 379 285 571 349 209 70
262 32 183 -131 -17 -35 -28 -65 -25 -68 17 -17 94 129 94 178 0 37 -32 61
-85 65 -27 3 -61 2 -75 -1z"/>
<path d="M2042 688 c-14 -14 -16 -28 -3 -28 9 0 24 30 18 36 -2 2 -9 -2 -15
-8z"/>
<path d="M2174 620 c-27 -33 -52 -60 -56 -60 -5 0 -8 18 -8 40 0 22 -4 40 -10
40 -5 0 -10 -11 -10 -25 0 -18 -10 -31 -32 -45 -56 -34 -67 -26 -43 33 4 9 3
17 -3 17 -14 0 -35 -57 -28 -76 7 -19 50 -12 77 12 21 19 29 18 29 -6 0 -45
54 -6 117 83 43 61 19 53 -33 -13z"/>
<path d="M2243 621 c-85 -53 -23 -120 70 -75 18 9 39 25 46 36 11 17 7 16 -21
-5 -44 -34 -78 -41 -103 -23 -16 12 -17 15 -5 19 68 20 75 24 75 42 0 27 -24
29 -62 6z m47 -5 c0 -15 -29 -30 -39 -20 -3 3 3 12 13 20 24 17 26 17 26 0z"/>
<path d="M772 607 c-28 -30 -28 -55 0 -66 30 -11 52 -4 78 24 31 33 23 59 -20
63 -27 2 -41 -3 -58 -21z m78 -2 c0 -22 -37 -55 -60 -55 -11 0 -20 7 -20 15 0
22 37 55 60 55 11 0 20 -7 20 -15z"/>
<path d="M2308 463 c23 -2 61 -2 85 0 23 2 4 4 -43 4 -47 0 -66 -2 -42 -4z"/>
</g>
</svg>
