<?xml version="1.0" standalone="no"?>
<!DOCTYPE svg PUBLIC "-//W3C//DTD SVG 20010904//EN"
 "http://www.w3.org/TR/2001/REC-SVG-20010904/DTD/svg10.dtd">
<svg version="1.0" xmlns="http://www.w3.org/2000/svg"
 width="300.000000pt" height="150.000000pt" viewBox="0 0 300.000000 150.000000"
 preserveAspectRatio="xMidYMid meet">

<g transform="translate(0.000000,150.000000) scale(0.100000,-0.100000)"
fill="#000000" stroke="none">
<path d="M1960 1167 c-201 -83 -580 -432 -580 -535 0 -21 -18 -42 -38 -42 -17
0 -12 19 45 148 44 98 53 150 16 83 -86 -154 -86 -154 -123 -156 -40 -3 -83
-46 -78 -79 5 -33 33 -30 77 10 39 34 41 35 39 13 -3 -20 2 -24 27 -25 17 0
43 -6 58 -12 32 -13 119 -14 157 -2 17 6 7 7 -30 4 -53 -5 -54 -4 -32 12 12 9
22 21 22 26 0 5 -13 -1 -29 -13 -21 -15 -37 -20 -55 -15 -33 8 -34 26 -2 26
27 0 51 24 41 40 -4 7 -19 9 -36 5 -36 -8 -36 1 0 55 105 157 490 460 583 460
33 0 36 -19 14 -90 -25 -84 -157 -375 -214 -475 l-58 -99 -78 -12 c-43 -7 -81
-16 -84 -20 -4 -3 9 -4 28 -1 113 18 120 19 120 6 0 -6 -20 -55 -44 -109 -54
-116 -64 -150 -45 -150 8 0 46 62 84 138 l70 137 100 7 c54 4 101 5 104 3 2
-3 -26 -73 -63 -156 -37 -83 -65 -156 -63 -162 3 -7 16 13 30 43 14 30 47 105
75 165 l50 110 193 5 194 6 -187 2 c-104 1 -188 4 -188 6 0 8 110 236 209 434
61 122 96 202 88 202 -7 0 -83 -142 -171 -319 l-157 -318 -52 -7 c-80 -9 -147
-7 -147 5 0 6 36 90 79 187 162 363 187 436 161 467 -17 21 -45 19 -110 -8z
m-660 -519 c0 -16 -51 -68 -67 -68 -21 0 -15 29 12 55 25 26 55 33 55 13z
m160 -8 c0 -13 -28 -25 -38 -16 -3 4 0 11 8 16 20 13 30 12 30 0z"/>
<path d="M1160 1045 c-188 -54 -405 -183 -555 -330 -113 -111 -131 -175 -58
-211 58 -29 271 -26 418 6 60 13 104 25 97 28 -7 2 -40 -3 -75 -12 -172 -42
-375 -47 -425 -9 -34 25 -38 43 -18 85 80 167 534 448 725 448 45 0 53 -3 63
-25 9 -21 6 -35 -18 -92 -16 -37 -30 -71 -32 -75 -2 -4 1 -8 7 -8 6 0 24 27
41 60 35 70 39 124 11 140 -26 14 -126 11 -181 -5z"/>
<path d="M2226 694 c-4 -10 -1 -14 6 -12 15 5 23 28 10 28 -5 0 -13 -7 -16
-16z"/>
<path d="M2350 645 c-23 -30 -46 -55 -51 -55 -5 0 -10 17 -10 38 -1 24 -3 29
-6 14 -4 -23 -55 -62 -80 -62 -9 0 -10 7 -3 26 15 38 11 53 -5 24 -22 -38 -19
-60 8 -60 13 0 32 7 43 15 21 16 38 20 30 7 -2 -4 -1 -14 4 -22 7 -12 15 -9
39 14 37 36 86 104 79 111 -3 3 -24 -19 -48 -50z"/>
<path d="M2415 648 c-11 -6 -23 -16 -27 -22 -11 -16 -10 -56 1 -56 5 0 18 -3
28 -6 13 -5 12 -2 -5 10 -26 20 -21 36 12 36 27 0 51 24 41 40 -8 13 -25 12
-50 -2z m35 -13 c0 -8 -9 -15 -20 -15 -22 0 -27 15 -7 23 21 9 27 7 27 -8z"/>
<path d="M1105 626 c-23 -34 -13 -56 24 -56 20 0 36 9 51 27 27 35 21 47 -23
51 -29 3 -39 -2 -52 -22z m75 2 c0 -19 -31 -48 -52 -48 -20 0 -23 12 -8 41 12
21 60 27 60 7z"/>
<path d="M2489 601 c-13 -10 -31 -21 -39 -24 -12 -4 -12 -6 2 -6 9 -1 30 10
45 24 33 29 27 34 -8 6z"/>
<path d="M2503 503 c15 -2 39 -2 55 0 15 2 2 4 -28 4 -30 0 -43 -2 -27 -4z"/>
</g>
</svg>
